<svg width="44" height="44" viewBox="0 0 44 44" fill="none" xmlns="http://www.w3.org/2000/svg">
<g clip-path="url(#clip0_1_56)">
<path d="M22.0687 17.5649C21.321 18.3125 20.114 18.3125 19.3664 17.5649L14.8626 13.0611C14.1149 12.3135 14.1149 11.1065 14.8626 10.3588C15.6102 9.61119 16.8172 9.61119 17.5648 10.3588L22.0687 14.8626C22.8163 15.6103 22.8163 16.8173 22.0687 17.5649Z" fill="#FFD831"/>
<path d="M27.4732 12.1602L26.1221 13.5114L24.7709 12.1602C24.0233 11.4126 24.0233 10.2056 24.7709 9.45794C25.5186 8.71031 26.7256 8.71031 27.4732 9.45794C28.2209 10.2056 28.2209 11.4126 27.4732 12.1602Z" fill="#FFD831"/>
<path d="M21.1679 25.6717C21.9155 24.9241 23.1226 24.9241 23.8702 25.6717L28.374 30.1755C29.1216 30.9231 29.1216 32.1301 28.374 32.8778C27.6264 33.6254 26.4194 33.6254 25.6717 32.8778L21.1679 28.374C20.4203 27.6263 20.4203 26.4193 21.1679 25.6717Z" fill="#FFD831"/>
<path d="M15.7633 31.0763L17.1145 29.7252L18.4656 31.0763C19.2132 31.824 19.2132 33.031 18.4656 33.7786C17.718 34.5263 16.5109 34.5263 15.7633 33.7786C15.0157 33.031 15.0157 31.824 15.7633 31.0763Z" fill="#FFD831"/>
<path d="M25.6717 22.0687C24.9241 21.321 24.9241 20.114 25.6717 19.3664L30.1755 14.8626C30.9231 14.1149 32.1302 14.1149 32.8778 14.8626C33.6254 15.6102 33.6254 16.8172 32.8778 17.5649L28.374 22.0687C27.6264 22.8163 26.4193 22.8163 25.6717 22.0687Z" fill="#FFD831"/>
<path d="M31.0763 24.7709L29.7252 26.1221L31.0763 27.4732C31.8239 28.2208 33.031 28.2208 33.7786 27.4732C34.5262 26.7256 34.5262 25.5186 33.7786 24.7709C33.031 24.0233 31.8239 24.0233 31.0763 24.7709Z" fill="#FFD831"/>
<path d="M17.5649 21.1679C16.8172 20.4202 15.6102 20.4202 14.8626 21.1679L10.3588 25.6717C9.61114 26.4193 9.61114 27.6263 10.3588 28.374C11.1064 29.1216 12.3134 29.1216 13.0611 28.374L17.5649 23.8702C18.3125 23.1225 18.3125 21.9155 17.5649 21.1679Z" fill="#FFD831"/>
<path d="M12.1603 18.4656L13.5114 17.1145L12.1603 15.7634C11.4127 15.0157 10.2056 15.0157 9.45802 15.7634C8.71038 16.511 8.71038 17.718 9.45802 18.4656C10.2056 19.2133 11.4127 19.2133 12.1603 18.4656Z" fill="#FFD831"/>
</g>
<defs>
<clipPath id="clip0_1_56">
<rect width="30.5729" height="30.5729" fill="white" transform="translate(0 21.6183) rotate(-45)"/>
</clipPath>
</defs>
</svg>
