<svg width="25" height="25" viewBox="0 0 25 25" fill="black" xmlns="http://www.w3.org/2000/svg">
    <path d="M12.9922 3.76001C8.02162 3.76001 3.99219 7.78945 3.99219 12.76C3.99219 17.7306 8.02162 21.76 12.9922 21.76C17.9628 21.76 21.9922 17.7306 21.9922 12.76C21.9922 7.78945 17.9628 3.76001 12.9922 3.76001ZM1.99219 12.76C1.99219 6.68488 6.91706 1.76001 12.9922 1.76001C19.0673 1.76001 23.9922 6.68488 23.9922 12.76C23.9922 18.8351 19.0673 23.76 12.9922 23.76C6.91706 23.76 1.99219 18.8351 1.99219 12.76Z"/>
    <path d="M12.9922 7.76001C13.5445 7.76001 13.9922 8.20772 13.9922 8.76001V12.76C13.9922 13.3123 13.5445 13.76 12.9922 13.76C12.4399 13.76 11.9922 13.3123 11.9922 12.76V8.76001C11.9922 8.20772 12.4399 7.76001 12.9922 7.76001Z"/>
    <path d="M11.9922 16.76C11.9922 16.2077 12.4399 15.76 12.9922 15.76H13.0022C13.5545 15.76 14.0022 16.2077 14.0022 16.76C14.0022 17.3123 13.5545 17.76 13.0022 17.76H12.9922C12.4399 17.76 11.9922 17.3123 11.9922 16.76Z"/>
</svg>
