<svg width="25" height="25" viewBox="0 0 25 25" fill="black" xmlns="http://www.w3.org/2000/svg">
    <path d="M11.909 1.94112C12.2701 1.66025 12.7758 1.66025 13.1369 1.94112L22.1369 8.94112C22.3805 9.13057 22.5229 9.42188 22.5229 9.73047V20.7305C22.5229 21.5261 22.2069 22.2892 21.6443 22.8518C21.0817 23.4144 20.3186 23.7305 19.5229 23.7305H5.52295C4.7273 23.7305 3.96424 23.4144 3.40163 22.8518C2.83902 22.2892 2.52295 21.5261 2.52295 20.7305V9.73047C2.52295 9.42188 2.66542 9.13057 2.90901 8.94112L11.909 1.94112ZM4.52295 10.2196V20.7305C4.52295 20.9957 4.62831 21.25 4.81584 21.4376C5.00338 21.6251 5.25773 21.7305 5.52295 21.7305H19.5229C19.7882 21.7305 20.0425 21.6251 20.2301 21.4376C20.4176 21.25 20.5229 20.9957 20.5229 20.7305V10.2196L12.5229 3.99733L4.52295 10.2196Z"/>
    <path d="M8.52295 12.7305C8.52295 12.1782 8.97066 11.7305 9.52295 11.7305H15.5229C16.0752 11.7305 16.5229 12.1782 16.5229 12.7305V22.7305C16.5229 23.2828 16.0752 23.7305 15.5229 23.7305C14.9707 23.7305 14.5229 23.2828 14.5229 22.7305V13.7305H10.5229V22.7305C10.5229 23.2828 10.0752 23.7305 9.52295 23.7305C8.97066 23.7305 8.52295 23.2828 8.52295 22.7305V12.7305Z" fill="black"/>
</svg>
