<svg width="24" height="24" viewBox="0 0 24 24" fill="none" xmlns="http://www.w3.org/2000/svg">
<path d="M16.5325 1.05315C16.7474 1.14337 16.902 1.3367 16.945 1.5644L17.7999 6.20006L22.4356 7.05072C22.6633 7.09368 22.8566 7.24834 22.9469 7.46316C23.0371 7.67797 23.0113 7.92286 22.8781 8.11619L20.2015 12L22.8781 15.8795C23.0113 16.0728 23.0371 16.3177 22.9469 16.5325C22.8566 16.7474 22.6633 16.902 22.4356 16.945L17.7999 17.7999L16.945 22.4356C16.902 22.6633 16.7474 22.8566 16.5325 22.9469C16.3177 23.0371 16.0728 23.0113 15.8795 22.8781L12 20.2015L8.12048 22.8781C7.92715 23.0113 7.68226 23.0371 7.46745 22.9469C7.25264 22.8566 7.09797 22.6633 7.05501 22.4356L6.20006 17.7999L1.5644 16.945C1.3367 16.902 1.14337 16.7474 1.05315 16.5325C0.962924 16.3177 0.988702 16.0728 1.12189 15.8795L3.79845 12L1.12189 8.12048C0.988702 7.92715 0.962924 7.68226 1.05315 7.46745C1.14337 7.25264 1.3367 7.09797 1.5644 7.05501L6.20006 6.20006L7.05501 1.5644C7.09797 1.3367 7.25264 1.14337 7.46745 1.05315C7.68226 0.962924 7.92715 0.988702 8.12048 1.12189L12 3.79845L15.8795 1.12189C16.0728 0.988702 16.3177 0.962924 16.5325 1.05315V1.05315ZM16.1244 12C16.1244 14.277 14.277 16.1244 12 16.1244C9.72299 16.1244 7.8756 14.277 7.8756 12C7.8756 9.72299 9.72299 7.8756 12 7.8756C14.277 7.8756 16.1244 9.72299 16.1244 12ZM17.4992 12C17.4992 8.96255 15.0375 6.5008 12 6.5008C8.96255 6.5008 6.5008 8.96255 6.5008 12C6.5008 15.0375 8.96255 17.4992 12 17.4992C15.0375 17.4992 17.4992 15.0375 17.4992 12Z" fill="#727272"/>
</svg>
