<svg width="24" height="24" viewBox="0 0 24 24" fill="none" xmlns="http://www.w3.org/2000/svg">
<path d="M14.0544 1C7.94606 1 3 5.92545 3 12C3 18.0746 7.94606 23 14.0544 23C17.0517 23 19.7671 21.8116 21.7604 19.8866C22.0077 19.646 22.072 19.2728 21.9137 18.9683C21.7554 18.6638 21.4142 18.492 21.0729 18.5509C20.5882 18.6344 20.0936 18.6786 19.5841 18.6786C14.7914 18.6786 10.9038 14.8089 10.9038 10.0357C10.9038 6.80446 12.6844 3.99063 15.3206 2.50759C15.6223 2.33571 15.7757 1.99196 15.7015 1.65804C15.6273 1.32411 15.3404 1.07366 14.9942 1.0442C14.6826 1.01964 14.371 1.00491 14.0544 1.00491V1Z" fill="#727272"/>
</svg>
